<svg width="70" height="70" viewBox="0 0 70 70" fill="none" xmlns="http://www.w3.org/2000/svg">
<rect width="70" height="70" fill="#153843"/>
<path d="M9 65L19.5002 4L38.7922 4.0419C46.4034 4.06983 52.084 5.52221 55.8341 8.39904C59.5842 11.2759 61.2925 15.3118 60.9592 20.5069C60.5425 26.9309 57.0425 31.4835 50.459 34.1648C52.8202 35.0027 54.6535 36.525 55.9591 38.7315C57.2925 40.91 57.8619 43.5355 57.6675 46.6078C57.2786 52.5011 54.9591 57.0398 50.709 60.2239C46.4867 63.408 40.695 65 33.3337 65H9ZM27.7503 39.0666L25.2086 53.6882L33.7504 53.7301C36.4171 53.7301 38.6394 53.0737 40.4172 51.761C42.195 50.4203 43.2506 48.6467 43.5839 46.4402C44.3617 41.7759 42.5839 39.332 38.2505 39.1085L27.7503 39.0666ZM29.3753 29.4306L36.0838 29.4725C42.2783 29.3329 45.7506 26.9448 46.5006 22.3084C47.1673 17.7278 44.8061 15.4235 39.4172 15.3956L31.8337 15.3537L29.3753 29.4306Z" fill="white"/>
</svg>
