<svg width="243" height="43" viewBox="0 0 243 43" fill="none" xmlns="http://www.w3.org/2000/svg">
<path d="M0 42.25L7.3125 0L20.7478 0.0290179C26.0484 0.0483631 30.0045 1.05432 32.6161 3.04688C35.2277 5.03943 36.4174 7.83482 36.1853 11.433C35.8951 15.8824 33.4576 19.0357 28.8728 20.8929C30.5171 21.4732 31.7939 22.5275 32.7031 24.0558C33.6317 25.5647 34.0283 27.3832 33.8929 29.5112C33.622 33.593 32.0067 36.7366 29.0469 38.942C26.1064 41.1473 22.0729 42.25 16.9464 42.25H0ZM13.058 24.2879L11.2879 34.4152L17.2366 34.4442C19.0937 34.4442 20.6414 33.9896 21.8795 33.0804C23.1176 32.1518 23.8527 30.9234 24.0848 29.3951C24.6265 26.1644 23.3884 24.4717 20.3705 24.317L13.058 24.2879ZM14.1897 17.6138L18.8616 17.6429C23.1756 17.5461 25.5937 15.8921 26.1161 12.6808C26.5804 9.50818 24.936 7.9122 21.183 7.89286L15.9018 7.86384L14.1897 17.6138Z" fill="#153843"/>
<path d="M49.6345 18.2812L60.313 0H71.4849L53.2617 27.5379L50.7371 42.25H40.6389L43.3666 26.5804L34.9224 0.0290179L45.2528 0L49.6345 18.2812Z" fill="#153843"/>
<path d="M100.243 42.25H90.6379L80.5396 15.5826L75.8968 42.25H65.9727L73.2852 0H82.9771L93.0463 26.6674L97.6602 0H107.584L100.243 42.25Z" fill="#153843"/>
<path d="M128.249 24.346H112.725L110.955 34.4152H129.013L123.442 42.25H99.6666L106.979 0H130.87L133.966 7.86384H115.568L114.001 16.7723H129.555L128.249 24.346Z" fill="#69BCD7"/>
<path d="M146.076 13.9866L154.955 0H166.737L151.705 21.3571L159.975 42.25H148.978L144.335 28.0022L135.223 42.25H123.355L138.734 20.5446L130.725 0H141.607L146.076 13.9866Z" fill="#153843"/>
<path d="M170.625 42.25L177.937 0L191.373 0.0290179C196.673 0.0483631 200.629 1.05432 203.241 3.04688C205.853 5.03943 207.042 7.83482 206.81 11.433C206.52 15.8824 204.083 19.0357 199.498 20.8929C201.142 21.4732 202.419 22.5275 203.328 24.0558C204.257 25.5647 204.653 27.3832 204.518 29.5112C204.247 33.593 202.632 36.7366 199.672 38.942C196.731 41.1473 192.698 42.25 187.571 42.25H170.625ZM183.683 24.2879L181.913 34.4152L187.862 34.4442C189.719 34.4442 191.266 33.9896 192.504 33.0804C193.743 32.1518 194.478 30.9234 194.71 29.3951C195.251 26.1644 194.013 24.4717 190.995 24.317L183.683 24.2879ZM184.815 17.6138L189.487 17.6429C193.801 17.5461 196.219 15.8921 196.741 12.6808C197.205 9.50818 195.561 7.9122 191.808 7.89286L186.527 7.86384L184.815 17.6138Z" fill="#153843"/>
<path d="M220.557 18.2812L231.235 0H242.407L224.184 27.5379L221.659 42.25H211.561L214.289 26.5804L205.845 0.0290179L216.175 0L220.557 18.2812Z" fill="#153843"/>
<path d="M163.815 34.2122H170.548L169.155 42.2501H162.423L163.815 34.2122Z" fill="#153843"/>
</svg>
